<mxfile host="app.diagrams.net" agent="Mozilla/5.0 (Windows NT 10.0; Win64; x64) AppleWebKit/537.36 (KHTML, like Gecko) Chrome/131.0.0.0 Safari/537.36" version="25.0.1">
  <diagram name="第 1 页" id="CfxO7MQP1XBkA4Rt6tvS">
    <mxGraphModel dx="1511" dy="771" grid="1" gridSize="10" guides="1" tooltips="1" connect="1" arrows="1" fold="1" page="1" pageScale="1" pageWidth="827" pageHeight="1169" math="0" shadow="0">
      <root>
        <mxCell id="0" />
        <mxCell id="1" parent="0" />
        <mxCell id="m6r2ihttggQjE23bY7rO-8" style="edgeStyle=orthogonalEdgeStyle;rounded=0;orthogonalLoop=1;jettySize=auto;html=1;endArrow=none;endFill=0;" parent="1" source="m6r2ihttggQjE23bY7rO-1" target="m6r2ihttggQjE23bY7rO-7" edge="1">
          <mxGeometry relative="1" as="geometry">
            <Array as="points">
              <mxPoint x="330" y="220" />
              <mxPoint x="10" y="220" />
            </Array>
          </mxGeometry>
        </mxCell>
        <mxCell id="m6r2ihttggQjE23bY7rO-9" style="edgeStyle=orthogonalEdgeStyle;rounded=0;orthogonalLoop=1;jettySize=auto;html=1;endArrow=none;endFill=0;" parent="1" source="m6r2ihttggQjE23bY7rO-1" target="m6r2ihttggQjE23bY7rO-3" edge="1">
          <mxGeometry relative="1" as="geometry" />
        </mxCell>
        <mxCell id="m6r2ihttggQjE23bY7rO-10" style="edgeStyle=orthogonalEdgeStyle;rounded=0;orthogonalLoop=1;jettySize=auto;html=1;endArrow=none;endFill=0;" parent="1" source="m6r2ihttggQjE23bY7rO-1" target="m6r2ihttggQjE23bY7rO-4" edge="1">
          <mxGeometry relative="1" as="geometry">
            <Array as="points">
              <mxPoint x="330" y="220" />
              <mxPoint x="170" y="220" />
            </Array>
          </mxGeometry>
        </mxCell>
        <mxCell id="m6r2ihttggQjE23bY7rO-11" style="edgeStyle=orthogonalEdgeStyle;rounded=0;orthogonalLoop=1;jettySize=auto;html=1;endArrow=none;endFill=0;" parent="1" source="m6r2ihttggQjE23bY7rO-1" target="m6r2ihttggQjE23bY7rO-5" edge="1">
          <mxGeometry relative="1" as="geometry">
            <Array as="points">
              <mxPoint x="330" y="220" />
              <mxPoint x="490" y="220" />
            </Array>
          </mxGeometry>
        </mxCell>
        <mxCell id="m6r2ihttggQjE23bY7rO-12" style="edgeStyle=orthogonalEdgeStyle;rounded=0;orthogonalLoop=1;jettySize=auto;html=1;endArrow=none;endFill=0;" parent="1" source="m6r2ihttggQjE23bY7rO-1" target="m6r2ihttggQjE23bY7rO-6" edge="1">
          <mxGeometry relative="1" as="geometry">
            <Array as="points">
              <mxPoint x="330" y="220" />
              <mxPoint x="650" y="220" />
            </Array>
          </mxGeometry>
        </mxCell>
        <mxCell id="m6r2ihttggQjE23bY7rO-1" value="Purchase A Vehicle Online" style="whiteSpace=wrap;html=1;" parent="1" vertex="1">
          <mxGeometry x="270" y="130" width="120" height="60" as="geometry" />
        </mxCell>
        <mxCell id="zoy7CmGEbyNFe8hneNYT-39" style="edgeStyle=orthogonalEdgeStyle;rounded=0;orthogonalLoop=1;jettySize=auto;html=1;endArrow=none;endFill=0;" edge="1" parent="1" source="m6r2ihttggQjE23bY7rO-3" target="zoy7CmGEbyNFe8hneNYT-33">
          <mxGeometry relative="1" as="geometry" />
        </mxCell>
        <mxCell id="zoy7CmGEbyNFe8hneNYT-40" style="edgeStyle=orthogonalEdgeStyle;rounded=0;orthogonalLoop=1;jettySize=auto;html=1;endArrow=none;endFill=0;" edge="1" parent="1" source="m6r2ihttggQjE23bY7rO-3" target="zoy7CmGEbyNFe8hneNYT-34">
          <mxGeometry relative="1" as="geometry">
            <Array as="points">
              <mxPoint x="330" y="570" />
              <mxPoint x="190" y="570" />
            </Array>
          </mxGeometry>
        </mxCell>
        <mxCell id="zoy7CmGEbyNFe8hneNYT-41" style="edgeStyle=orthogonalEdgeStyle;rounded=0;orthogonalLoop=1;jettySize=auto;html=1;endArrow=none;endFill=0;" edge="1" parent="1" source="m6r2ihttggQjE23bY7rO-3" target="zoy7CmGEbyNFe8hneNYT-35">
          <mxGeometry relative="1" as="geometry">
            <Array as="points">
              <mxPoint x="330" y="570" />
              <mxPoint x="474" y="570" />
            </Array>
          </mxGeometry>
        </mxCell>
        <mxCell id="m6r2ihttggQjE23bY7rO-3" value="Customize Vehicle Options" style="whiteSpace=wrap;html=1;" parent="1" vertex="1">
          <mxGeometry x="270" y="260" width="120" height="60" as="geometry" />
        </mxCell>
        <mxCell id="zoy7CmGEbyNFe8hneNYT-29" style="edgeStyle=orthogonalEdgeStyle;rounded=0;orthogonalLoop=1;jettySize=auto;html=1;endArrow=none;endFill=0;" edge="1" parent="1" source="m6r2ihttggQjE23bY7rO-4" target="zoy7CmGEbyNFe8hneNYT-15">
          <mxGeometry relative="1" as="geometry">
            <Array as="points">
              <mxPoint x="170" y="460" />
              <mxPoint x="90" y="460" />
            </Array>
          </mxGeometry>
        </mxCell>
        <mxCell id="zoy7CmGEbyNFe8hneNYT-30" style="edgeStyle=orthogonalEdgeStyle;rounded=0;orthogonalLoop=1;jettySize=auto;html=1;endArrow=none;endFill=0;" edge="1" parent="1" source="m6r2ihttggQjE23bY7rO-4" target="zoy7CmGEbyNFe8hneNYT-17">
          <mxGeometry relative="1" as="geometry">
            <Array as="points">
              <mxPoint x="170" y="460" />
              <mxPoint x="240" y="460" />
            </Array>
          </mxGeometry>
        </mxCell>
        <mxCell id="zoy7CmGEbyNFe8hneNYT-31" style="edgeStyle=orthogonalEdgeStyle;rounded=0;orthogonalLoop=1;jettySize=auto;html=1;endArrow=none;endFill=0;" edge="1" parent="1" source="m6r2ihttggQjE23bY7rO-4" target="zoy7CmGEbyNFe8hneNYT-16">
          <mxGeometry relative="1" as="geometry">
            <Array as="points">
              <mxPoint x="170" y="460" />
              <mxPoint x="-60" y="460" />
            </Array>
          </mxGeometry>
        </mxCell>
        <mxCell id="m6r2ihttggQjE23bY7rO-4" value="Select A Vehicle" style="whiteSpace=wrap;html=1;" parent="1" vertex="1">
          <mxGeometry x="110" y="260" width="120" height="60" as="geometry" />
        </mxCell>
        <mxCell id="zoy7CmGEbyNFe8hneNYT-49" style="edgeStyle=orthogonalEdgeStyle;rounded=0;orthogonalLoop=1;jettySize=auto;html=1;" edge="1" parent="1" source="m6r2ihttggQjE23bY7rO-5" target="zoy7CmGEbyNFe8hneNYT-43">
          <mxGeometry relative="1" as="geometry">
            <Array as="points">
              <mxPoint x="490" y="460" />
              <mxPoint x="540" y="460" />
            </Array>
          </mxGeometry>
        </mxCell>
        <mxCell id="zoy7CmGEbyNFe8hneNYT-50" style="edgeStyle=orthogonalEdgeStyle;rounded=0;orthogonalLoop=1;jettySize=auto;html=1;" edge="1" parent="1" source="m6r2ihttggQjE23bY7rO-5" target="zoy7CmGEbyNFe8hneNYT-44">
          <mxGeometry relative="1" as="geometry">
            <Array as="points">
              <mxPoint x="490" y="460" />
              <mxPoint x="400" y="460" />
            </Array>
          </mxGeometry>
        </mxCell>
        <mxCell id="zoy7CmGEbyNFe8hneNYT-51" style="edgeStyle=orthogonalEdgeStyle;rounded=0;orthogonalLoop=1;jettySize=auto;html=1;" edge="1" parent="1" source="m6r2ihttggQjE23bY7rO-5" target="zoy7CmGEbyNFe8hneNYT-45">
          <mxGeometry relative="1" as="geometry">
            <Array as="points">
              <mxPoint x="490" y="460" />
              <mxPoint x="684" y="460" />
            </Array>
          </mxGeometry>
        </mxCell>
        <mxCell id="m6r2ihttggQjE23bY7rO-5" value="Review Purchase Details" style="whiteSpace=wrap;html=1;" parent="1" vertex="1">
          <mxGeometry x="430" y="260" width="120" height="60" as="geometry" />
        </mxCell>
        <mxCell id="zoy7CmGEbyNFe8hneNYT-60" style="edgeStyle=orthogonalEdgeStyle;rounded=0;orthogonalLoop=1;jettySize=auto;html=1;" edge="1" parent="1">
          <mxGeometry relative="1" as="geometry">
            <mxPoint x="682" y="320" as="sourcePoint" />
            <mxPoint x="592" y="375" as="targetPoint" />
            <Array as="points">
              <mxPoint x="650" y="320" />
              <mxPoint x="650" y="350" />
              <mxPoint x="592" y="350" />
            </Array>
          </mxGeometry>
        </mxCell>
        <mxCell id="zoy7CmGEbyNFe8hneNYT-61" style="edgeStyle=orthogonalEdgeStyle;rounded=0;orthogonalLoop=1;jettySize=auto;html=1;" edge="1" parent="1">
          <mxGeometry relative="1" as="geometry">
            <mxPoint x="682" y="320" as="sourcePoint" />
            <mxPoint x="742" y="375" as="targetPoint" />
            <Array as="points">
              <mxPoint x="650" y="320" />
              <mxPoint x="650" y="350" />
              <mxPoint x="742" y="350" />
            </Array>
          </mxGeometry>
        </mxCell>
        <mxCell id="zoy7CmGEbyNFe8hneNYT-65" style="edgeStyle=orthogonalEdgeStyle;rounded=0;orthogonalLoop=1;jettySize=auto;html=1;" edge="1" parent="1" source="m6r2ihttggQjE23bY7rO-6">
          <mxGeometry relative="1" as="geometry">
            <mxPoint x="682" y="320" as="sourcePoint" />
            <mxPoint x="882" y="375" as="targetPoint" />
            <Array as="points">
              <mxPoint x="650" y="350" />
              <mxPoint x="882" y="350" />
            </Array>
          </mxGeometry>
        </mxCell>
        <mxCell id="zoy7CmGEbyNFe8hneNYT-66" style="edgeStyle=orthogonalEdgeStyle;rounded=0;orthogonalLoop=1;jettySize=auto;html=1;" edge="1" parent="1">
          <mxGeometry relative="1" as="geometry">
            <mxPoint x="682" y="320" as="sourcePoint" />
            <mxPoint x="1022" y="375" as="targetPoint" />
            <Array as="points">
              <mxPoint x="650" y="320" />
              <mxPoint x="650" y="350" />
              <mxPoint x="1022" y="350" />
            </Array>
          </mxGeometry>
        </mxCell>
        <mxCell id="m6r2ihttggQjE23bY7rO-6" value="Submit Purchase Request" style="whiteSpace=wrap;html=1;" parent="1" vertex="1">
          <mxGeometry x="590" y="260" width="120" height="60" as="geometry" />
        </mxCell>
        <mxCell id="zoy7CmGEbyNFe8hneNYT-25" style="edgeStyle=orthogonalEdgeStyle;rounded=0;orthogonalLoop=1;jettySize=auto;html=1;endArrow=none;endFill=0;" edge="1" parent="1" source="m6r2ihttggQjE23bY7rO-7" target="zoy7CmGEbyNFe8hneNYT-5">
          <mxGeometry relative="1" as="geometry">
            <Array as="points">
              <mxPoint x="10" y="350" />
              <mxPoint x="-380" y="350" />
            </Array>
          </mxGeometry>
        </mxCell>
        <mxCell id="zoy7CmGEbyNFe8hneNYT-26" style="edgeStyle=orthogonalEdgeStyle;rounded=0;orthogonalLoop=1;jettySize=auto;html=1;endArrow=none;endFill=0;" edge="1" parent="1" source="m6r2ihttggQjE23bY7rO-7" target="zoy7CmGEbyNFe8hneNYT-1">
          <mxGeometry relative="1" as="geometry">
            <Array as="points">
              <mxPoint x="10" y="350" />
              <mxPoint x="-230" y="350" />
            </Array>
          </mxGeometry>
        </mxCell>
        <mxCell id="zoy7CmGEbyNFe8hneNYT-27" style="edgeStyle=orthogonalEdgeStyle;rounded=0;orthogonalLoop=1;jettySize=auto;html=1;endArrow=none;endFill=0;" edge="1" parent="1" source="m6r2ihttggQjE23bY7rO-7" target="zoy7CmGEbyNFe8hneNYT-3">
          <mxGeometry relative="1" as="geometry" />
        </mxCell>
        <mxCell id="zoy7CmGEbyNFe8hneNYT-28" style="edgeStyle=orthogonalEdgeStyle;rounded=0;orthogonalLoop=1;jettySize=auto;html=1;endArrow=none;endFill=0;" edge="1" parent="1" source="m6r2ihttggQjE23bY7rO-7" target="zoy7CmGEbyNFe8hneNYT-4">
          <mxGeometry relative="1" as="geometry" />
        </mxCell>
        <mxCell id="m6r2ihttggQjE23bY7rO-7" value="Browse Available Vehicle" style="whiteSpace=wrap;html=1;" parent="1" vertex="1">
          <mxGeometry x="-50" y="260" width="120" height="60" as="geometry" />
        </mxCell>
        <mxCell id="m6r2ihttggQjE23bY7rO-13" value="0" style="text;html=1;align=center;verticalAlign=middle;resizable=0;points=[];autosize=1;strokeColor=none;fillColor=none;" parent="1" vertex="1">
          <mxGeometry x="360" y="170" width="30" height="30" as="geometry" />
        </mxCell>
        <mxCell id="m6r2ihttggQjE23bY7rO-14" value="1" style="text;html=1;align=center;verticalAlign=middle;resizable=0;points=[];autosize=1;strokeColor=none;fillColor=none;" parent="1" vertex="1">
          <mxGeometry x="40" y="300" width="30" height="30" as="geometry" />
        </mxCell>
        <mxCell id="m6r2ihttggQjE23bY7rO-15" value="2" style="text;html=1;align=center;verticalAlign=middle;resizable=0;points=[];autosize=1;strokeColor=none;fillColor=none;" parent="1" vertex="1">
          <mxGeometry x="200" y="300" width="30" height="30" as="geometry" />
        </mxCell>
        <mxCell id="m6r2ihttggQjE23bY7rO-16" value="3" style="text;html=1;align=center;verticalAlign=middle;resizable=0;points=[];autosize=1;strokeColor=none;fillColor=none;" parent="1" vertex="1">
          <mxGeometry x="360" y="300" width="30" height="30" as="geometry" />
        </mxCell>
        <mxCell id="m6r2ihttggQjE23bY7rO-17" value="4" style="text;html=1;align=center;verticalAlign=middle;resizable=0;points=[];autosize=1;strokeColor=none;fillColor=none;" parent="1" vertex="1">
          <mxGeometry x="520" y="300" width="30" height="30" as="geometry" />
        </mxCell>
        <mxCell id="m6r2ihttggQjE23bY7rO-18" value="5" style="text;html=1;align=center;verticalAlign=middle;resizable=0;points=[];autosize=1;strokeColor=none;fillColor=none;" parent="1" vertex="1">
          <mxGeometry x="686" y="300" width="30" height="30" as="geometry" />
        </mxCell>
        <mxCell id="zoy7CmGEbyNFe8hneNYT-1" value="Use Filters" style="whiteSpace=wrap;html=1;" vertex="1" parent="1">
          <mxGeometry x="-290" y="380" width="120" height="60" as="geometry" />
        </mxCell>
        <mxCell id="zoy7CmGEbyNFe8hneNYT-3" value="Sort Results" style="whiteSpace=wrap;html=1;" vertex="1" parent="1">
          <mxGeometry x="-140" y="380" width="120" height="60" as="geometry" />
        </mxCell>
        <mxCell id="zoy7CmGEbyNFe8hneNYT-4" value="View Thumbnails" style="whiteSpace=wrap;html=1;" vertex="1" parent="1">
          <mxGeometry x="10" y="380" width="120" height="60" as="geometry" />
        </mxCell>
        <mxCell id="zoy7CmGEbyNFe8hneNYT-5" value="Access Vehicle Listing Page" style="whiteSpace=wrap;html=1;" vertex="1" parent="1">
          <mxGeometry x="-440" y="380" width="120" height="60" as="geometry" />
        </mxCell>
        <mxCell id="zoy7CmGEbyNFe8hneNYT-11" value="1.1" style="text;html=1;align=center;verticalAlign=middle;resizable=0;points=[];autosize=1;strokeColor=none;fillColor=none;" vertex="1" parent="1">
          <mxGeometry x="-350" y="420" width="40" height="30" as="geometry" />
        </mxCell>
        <mxCell id="zoy7CmGEbyNFe8hneNYT-12" value="1.2" style="text;html=1;align=center;verticalAlign=middle;resizable=0;points=[];autosize=1;strokeColor=none;fillColor=none;" vertex="1" parent="1">
          <mxGeometry x="-200" y="420" width="40" height="30" as="geometry" />
        </mxCell>
        <mxCell id="zoy7CmGEbyNFe8hneNYT-13" value="1.3" style="text;html=1;align=center;verticalAlign=middle;resizable=0;points=[];autosize=1;strokeColor=none;fillColor=none;" vertex="1" parent="1">
          <mxGeometry x="-50" y="420" width="40" height="30" as="geometry" />
        </mxCell>
        <mxCell id="zoy7CmGEbyNFe8hneNYT-14" value="1.4" style="text;html=1;align=center;verticalAlign=middle;resizable=0;points=[];autosize=1;strokeColor=none;fillColor=none;" vertex="1" parent="1">
          <mxGeometry x="100" y="420" width="40" height="30" as="geometry" />
        </mxCell>
        <mxCell id="zoy7CmGEbyNFe8hneNYT-24" value="" style="group" vertex="1" connectable="0" parent="1">
          <mxGeometry x="-120" y="490" width="410" height="70" as="geometry" />
        </mxCell>
        <mxCell id="zoy7CmGEbyNFe8hneNYT-15" value="Review Specifications" style="whiteSpace=wrap;html=1;" vertex="1" parent="zoy7CmGEbyNFe8hneNYT-24">
          <mxGeometry x="140" width="120" height="60" as="geometry" />
        </mxCell>
        <mxCell id="zoy7CmGEbyNFe8hneNYT-16" value="Click On Vehicle Thumbnail" style="whiteSpace=wrap;html=1;" vertex="1" parent="zoy7CmGEbyNFe8hneNYT-24">
          <mxGeometry width="120" height="60" as="geometry" />
        </mxCell>
        <mxCell id="zoy7CmGEbyNFe8hneNYT-17" value="Check Available Options" style="whiteSpace=wrap;html=1;" vertex="1" parent="zoy7CmGEbyNFe8hneNYT-24">
          <mxGeometry x="284" width="120" height="60" as="geometry" />
        </mxCell>
        <mxCell id="zoy7CmGEbyNFe8hneNYT-21" value="2.1" style="text;html=1;align=center;verticalAlign=middle;resizable=0;points=[];autosize=1;strokeColor=none;fillColor=none;" vertex="1" parent="zoy7CmGEbyNFe8hneNYT-24">
          <mxGeometry x="90" y="40" width="40" height="30" as="geometry" />
        </mxCell>
        <mxCell id="zoy7CmGEbyNFe8hneNYT-22" value="2.2" style="text;html=1;align=center;verticalAlign=middle;resizable=0;points=[];autosize=1;strokeColor=none;fillColor=none;" vertex="1" parent="zoy7CmGEbyNFe8hneNYT-24">
          <mxGeometry x="225" y="40" width="40" height="30" as="geometry" />
        </mxCell>
        <mxCell id="zoy7CmGEbyNFe8hneNYT-23" value="2.3" style="text;html=1;align=center;verticalAlign=middle;resizable=0;points=[];autosize=1;strokeColor=none;fillColor=none;" vertex="1" parent="zoy7CmGEbyNFe8hneNYT-24">
          <mxGeometry x="370" y="40" width="40" height="30" as="geometry" />
        </mxCell>
        <mxCell id="zoy7CmGEbyNFe8hneNYT-32" value="" style="group" vertex="1" connectable="0" parent="1">
          <mxGeometry x="130" y="600" width="410" height="70" as="geometry" />
        </mxCell>
        <mxCell id="zoy7CmGEbyNFe8hneNYT-33" value="Select Additional Features" style="whiteSpace=wrap;html=1;" vertex="1" parent="zoy7CmGEbyNFe8hneNYT-32">
          <mxGeometry x="140" width="120" height="60" as="geometry" />
        </mxCell>
        <mxCell id="zoy7CmGEbyNFe8hneNYT-34" value="Choose Color and Trim" style="whiteSpace=wrap;html=1;" vertex="1" parent="zoy7CmGEbyNFe8hneNYT-32">
          <mxGeometry width="120" height="60" as="geometry" />
        </mxCell>
        <mxCell id="zoy7CmGEbyNFe8hneNYT-35" value="Add Accessories" style="whiteSpace=wrap;html=1;" vertex="1" parent="zoy7CmGEbyNFe8hneNYT-32">
          <mxGeometry x="284" width="120" height="60" as="geometry" />
        </mxCell>
        <mxCell id="zoy7CmGEbyNFe8hneNYT-36" value="3.1" style="text;html=1;align=center;verticalAlign=middle;resizable=0;points=[];autosize=1;strokeColor=none;fillColor=none;" vertex="1" parent="zoy7CmGEbyNFe8hneNYT-32">
          <mxGeometry x="90" y="40" width="40" height="30" as="geometry" />
        </mxCell>
        <mxCell id="zoy7CmGEbyNFe8hneNYT-37" value="3.2" style="text;html=1;align=center;verticalAlign=middle;resizable=0;points=[];autosize=1;strokeColor=none;fillColor=none;" vertex="1" parent="zoy7CmGEbyNFe8hneNYT-32">
          <mxGeometry x="225" y="40" width="40" height="30" as="geometry" />
        </mxCell>
        <mxCell id="zoy7CmGEbyNFe8hneNYT-38" value="3.3" style="text;html=1;align=center;verticalAlign=middle;resizable=0;points=[];autosize=1;strokeColor=none;fillColor=none;" vertex="1" parent="zoy7CmGEbyNFe8hneNYT-32">
          <mxGeometry x="370" y="40" width="40" height="30" as="geometry" />
        </mxCell>
        <mxCell id="zoy7CmGEbyNFe8hneNYT-42" value="" style="group" vertex="1" connectable="0" parent="1">
          <mxGeometry x="340" y="490" width="410" height="70" as="geometry" />
        </mxCell>
        <mxCell id="zoy7CmGEbyNFe8hneNYT-43" value="View Price Breakdown" style="whiteSpace=wrap;html=1;" vertex="1" parent="zoy7CmGEbyNFe8hneNYT-42">
          <mxGeometry x="140" width="120" height="60" as="geometry" />
        </mxCell>
        <mxCell id="zoy7CmGEbyNFe8hneNYT-44" value="Confirm Selections" style="whiteSpace=wrap;html=1;" vertex="1" parent="zoy7CmGEbyNFe8hneNYT-42">
          <mxGeometry width="120" height="60" as="geometry" />
        </mxCell>
        <mxCell id="zoy7CmGEbyNFe8hneNYT-45" value="Read Terms and Conditions" style="whiteSpace=wrap;html=1;" vertex="1" parent="zoy7CmGEbyNFe8hneNYT-42">
          <mxGeometry x="284" width="120" height="60" as="geometry" />
        </mxCell>
        <mxCell id="zoy7CmGEbyNFe8hneNYT-46" value="4.1" style="text;html=1;align=center;verticalAlign=middle;resizable=0;points=[];autosize=1;strokeColor=none;fillColor=none;" vertex="1" parent="zoy7CmGEbyNFe8hneNYT-42">
          <mxGeometry x="90" y="40" width="40" height="30" as="geometry" />
        </mxCell>
        <mxCell id="zoy7CmGEbyNFe8hneNYT-47" value="4.2" style="text;html=1;align=center;verticalAlign=middle;resizable=0;points=[];autosize=1;strokeColor=none;fillColor=none;" vertex="1" parent="zoy7CmGEbyNFe8hneNYT-42">
          <mxGeometry x="225" y="40" width="40" height="30" as="geometry" />
        </mxCell>
        <mxCell id="zoy7CmGEbyNFe8hneNYT-48" value="4.3" style="text;html=1;align=center;verticalAlign=middle;resizable=0;points=[];autosize=1;strokeColor=none;fillColor=none;" vertex="1" parent="zoy7CmGEbyNFe8hneNYT-42">
          <mxGeometry x="370" y="40" width="40" height="30" as="geometry" />
        </mxCell>
        <mxCell id="zoy7CmGEbyNFe8hneNYT-52" value="Provide Payment Information" style="whiteSpace=wrap;html=1;" vertex="1" parent="1">
          <mxGeometry x="680" y="375" width="120" height="60" as="geometry" />
        </mxCell>
        <mxCell id="zoy7CmGEbyNFe8hneNYT-53" value="Review and Confirm Order" style="whiteSpace=wrap;html=1;" vertex="1" parent="1">
          <mxGeometry x="820" y="375" width="120" height="60" as="geometry" />
        </mxCell>
        <mxCell id="zoy7CmGEbyNFe8hneNYT-54" value="Receive Confirmation" style="whiteSpace=wrap;html=1;" vertex="1" parent="1">
          <mxGeometry x="960" y="375" width="120" height="60" as="geometry" />
        </mxCell>
        <mxCell id="zoy7CmGEbyNFe8hneNYT-55" value="Enter Personal Information" style="whiteSpace=wrap;html=1;" vertex="1" parent="1">
          <mxGeometry x="530" y="375" width="120" height="60" as="geometry" />
        </mxCell>
        <mxCell id="zoy7CmGEbyNFe8hneNYT-56" value="5.1" style="text;html=1;align=center;verticalAlign=middle;resizable=0;points=[];autosize=1;strokeColor=none;fillColor=none;" vertex="1" parent="1">
          <mxGeometry x="620" y="415" width="40" height="30" as="geometry" />
        </mxCell>
        <mxCell id="zoy7CmGEbyNFe8hneNYT-57" value="5.2" style="text;html=1;align=center;verticalAlign=middle;resizable=0;points=[];autosize=1;strokeColor=none;fillColor=none;" vertex="1" parent="1">
          <mxGeometry x="770" y="415" width="40" height="30" as="geometry" />
        </mxCell>
        <mxCell id="zoy7CmGEbyNFe8hneNYT-58" value="5.3" style="text;html=1;align=center;verticalAlign=middle;resizable=0;points=[];autosize=1;strokeColor=none;fillColor=none;" vertex="1" parent="1">
          <mxGeometry x="910" y="415" width="40" height="30" as="geometry" />
        </mxCell>
        <mxCell id="zoy7CmGEbyNFe8hneNYT-59" value="5.4" style="text;html=1;align=center;verticalAlign=middle;resizable=0;points=[];autosize=1;strokeColor=none;fillColor=none;" vertex="1" parent="1">
          <mxGeometry x="1050" y="415" width="40" height="30" as="geometry" />
        </mxCell>
      </root>
    </mxGraphModel>
  </diagram>
</mxfile>
